<svg xmlns="http://www.w3.org/2000/svg" class="icon" style="width: 128px; height: 128px; vertical-align: middle; fill: currentcolor; overflow: hidden;" viewBox="0 0 1104 1024" version="1.1"><path d="M743.977151 403.346607c-0.439995-4.289954-0.97799-8.555909-1.698982-12.979862-43.827533-139.868511-51.209455-229.698555-162.930266-310.901691L390.615912 100.425831c-0.476995 0.476995-0.91699 0.97799-1.380985 1.466984l-8.249912-6.012936L324.190619 50.510362c-0.830991 0.891991-1.612983 1.796981-2.443974 2.700972l-2.713971-1.94298 2.700971 1.955979c-33.756641 38.779587-23.624749 85.272092 24.945735 111.964809-37.313603 80.212146-43.388538 187.668002-45.258518 277.267048 0.232998 2.113977 0.500995 4.154956 0.769991 6.109935a128.330634 128.330634 0 0 0 12.930863 47.384496c1.527984 3.544962 3.165966 7.100924 4.888948 10.730886l0.635993-0.256998c35.443623 61.10935 118.173742 110.217827 219.884659 100.965926h0.463995q7.027925-0.647993 14.16485-1.661983c140.760502-20.276784 174.114147-121.718704 181.007073-138.706523 3.580962-8.799906 11.573877-36.568611 7.809917-63.676322zM389.161928 101.965815l-0.231998 0.244997-5.548941-4.412953z" fill="#F7F8F9"/><path d="M725.925343 1009.700152A1247.784718 1247.784718 0 0 0 919.117287 968.000596c7.51592-2.261976 4.313954-14.05585-3.250966-11.782874a1247.784718 1247.784718 0 0 1-193.106944 41.750555c-7.759917 1.038989-4.447953 12.820864 3.250965 11.781875z m89.464048 14.201849a1218.44003 1218.44003 0 0 0 135.504557-29.857682c7.565919-2.126977 4.350954-13.920852-3.249965-11.781875a1218.44003 1218.44003 0 0 1-135.505558 29.857682c-7.748918 1.221987-4.459953 13.028861 3.250966 11.781875z m-233.877511-17.80681l112.562802-20.215785c7.724918-1.392985 4.448953-13.16286-3.249965-11.781875l-112.564802 20.215785c-7.723918 1.392985-4.448953 13.16286 3.250965 11.781875zM792.301636 950.888778l135.663556-31.91166c7.649919-1.796981 4.411953-13.590855-3.250965-11.781875L789.051671 939.106904c-7.650919 1.795981-4.411953 13.589855 3.249965 11.781874z m-381.36094 56.905395l363.956126-88.549058 103.996893-25.298731c7.638919-1.85798 4.399953-13.651855-3.250966-11.781874l-363.944126 88.548057-103.996893 25.299731c-7.638919 1.85698-4.399953 13.651855 3.250966 11.781875z" fill="#EAE9E8"/><path d="M254.281363 638.728101l25.506729-40.40557h516.6695l23.563749 40.40557H254.281363z" fill="#FFCB00"/><path d="M405.795751 558.332957c-36.005617 44.462527-42.054552 170.092189-21.876768 250.072338 3.482963 13.834853 7.736918 27.926703 17.024819 39.354581s24.725737 19.74979 40.198572 17.659812c20.214785-2.724971 32.83965-21.032776 40.784566-38.107594s15.301837-36.237614 32.87665-45.697514c17.88081-9.629897 43.522537-4.66895 55.524409 10.742886 9.629897 12.369868 10.28989 28.648695 16.91482 42.557547 9.875895 20.776779 38.48659 35.333624 60.645355 25.005734 11.097882-5.169945 18.332805-15.203838 23.991744-25.286731 27.144711-48.619482 45.734513-187.815001-7.626919-280.506014" fill="#977A53"/><path d="M452.83825 561.204926c-88.499058 235.197496 242.471419 241.45643 156.441335 1.319986" fill="#B79369"/><path d="M661.015034 555.313989s60.009361 5.889937 126.642652-51.869448l27.426708 29.09969s-34.404634 68.320273-125.738662 107.821853z" fill="#977A53"/><path d="M254.281363 638.728101H820.021341l-43.289539 342.043359H301.909856l-47.629493-342.043359z" fill="#FEE7B1"/><path d="M443.770346 591.026609c18.417804 13.11386 45.000521 15.423836 66.817289 16.90282 27.046712 1.84498 55.206412 1.013989 81.691131-5.182945 10.009893-2.345975 20.593781-5.523941 28.635695-12.22187 3.055967-2.541973-1.331986-6.892927-4.362954-4.362953-6.709929 5.572941-15.888831 8.151913-24.187742 10.205891a214.030722 214.030722 0 0 1-35.944618 5.291944c-26.069723 1.88198-53.019436 1.221987-78.659162-4.265955-10.694886-2.272976-21.865767-5.291944-30.885672-11.719875-3.238966-2.309975-6.330933 3.042968-3.116966 5.339943z" fill="#997858"/><path d="M851.897002 526.299298l-28.110701-48.949479a1.441985 1.441985 0 0 0-0.977989-0.695993 1.417985 1.417985 0 0 0-1.221987 0.279997l-34.135637 26.559718a1.441985 1.441985 0 0 0-0.159998 2.137977l26.082722 27.376708a1.441985 1.441985 0 0 0 1.038989 0.452996h0.194998l36.127615-4.974947a1.441985 1.441985 0 0 0 1.051989-2.149978z" fill="#3A4244"/><path d="M598.903695 102.332811a37.484601 37.484601 0 0 0-4.889948-3.140967 5.511941 5.511941 0 0 0-7.075925 0.91599c-1.222987-0.145998-2.370975-0.378996-3.569962-0.561994a40.222572 40.222572 0 0 0-6.806927-7.051925 28.1957 28.1957 0 0 0 4.778949-11.427878 35.809619 35.809619 0 0 0 3.910958-22.133764c-1.441985-10.36389-6.57493-19.786789-12.514866-28.452697a58.555377 58.555377 0 0 0-4.082957-8.432911 12.087871 12.087871 0 0 1-6.403932-3.323964 46.504505 46.504505 0 0 0-5.64594-5.023947 16.203828 16.203828 0 0 0-1.85798-1.221987l-0.806991-0.389996c-2.003979-0.94199-3.995957-1.86998-6.109935-2.628972-0.379996-0.133999-2.004979-0.634993-2.065978-0.671993l-1.784981-0.451995h-0.439996a117.721747 117.721747 0 0 0-26.545717 0.793992 18.418804 18.418804 0 0 1-2.871969 0.183998 5.60994 5.60994 0 0 1-6.685929 2.77397 8.640908 8.640908 0 0 1-5.755939-4.729949c-9.044904 0.219998-17.184817 1.307986-25.898724 4.974947-9.068903 3.812959-18.112807 7.332922-26.765715 12.099871a6.208934 6.208934 0 0 1-1.515984 2.883969c-6.329933 7.039925-12.049872 14.799842-18.026808 22.145765-3.275965 4.032957-2.444974 6.990926-3.104967 11.818874-0.524994 3.873959-2.749971 7.027925-3.567962 10.791885-0.95399 4.350954-5.121945 5.193945-8.274912 3.666961a39.47658 39.47658 0 0 0 2.981968 23.294752c3.275965 7.099924 12.22187 6.109935 15.668833 1.368985 1.221987 0.378996 2.443974 0.732992 3.72796 1.086989 2.101978 18.333805 15.777832 31.312667 32.92565 37.888596a82.363123 82.363123 0 0 0 33.499643 15.863832c13.529856 2.920969 31.337666 4.216955 44.451527-1.02699 9.777896-3.909958 7.626919-16.645823 9.471899-26.985712 0.244997-1.392985 9.997894 0.182998 10.070893-1.136988a23.013755 23.013755 0 0 0 15.766832-5.914937 17.379815 17.379815 0 0 0 13.577856-4.228955 8.554909 8.554909 0 0 0 2.236976-3.287965c3.042968-2.529973 4.093956-7.222923 0-10.32689z" fill="#F7CC63"/><path d="M660.966034 13.796753c-28.391698 29.002691-43.913533 44.719524-71.939234 73.992213m56.600398 48.77748c51.772449-35.761619 55.42641-88.439059 10.180891-122.622694l-66.524292 75.299198 51.002458 51.209455z" fill="#29C8ED"/><path d="M599.36769 102.564808c5.816938-3.849959 32.999649-22.52476 48.398485-44.976521a0.879991 0.879991 0 0 1 1.489984 0c3.667961 5.927937 22.146764 28.892692-17.940809 68.992266-0.317997 0.317997 0.683993 1.149988 0.317997 0.87999l-32.289657-23.379751a0.92899 0.92899 0 0 1 0.024-1.515984z" fill="#8E5638"/><path d="M613.043545 110.936719c2.370975-1.282986 14.274848-7.992915 20.141785-15.888831a0.280997 0.280997 0 0 1 0.524995 0.134999c0.183998 2.443974-0.329996 10.546888-13.003862 21.54677a0.329996 0.329996 0 0 1-0.389996 0l-7.333922-5.254944a0.292997 0.292997 0 0 1 0.061-0.537994z" fill="#77432C"/><path d="M334.750507 44.254429c32.999649 23.685748 50.965457 36.481612 83.60911 60.485356m-47.346496 57.834384c-57.149392-26.30172-69.836257-77.559174-31.166668-119.041732l78.502164 62.674332-41.419559 59.22737z" fill="#29C8ED"/><path d="M410.685699 121.019612c-6.392932-2.78597-36.421612-16.499824-55.42741-35.969617a0.879991 0.879991 0 0 0-1.453985 0.293997c-2.614972 6.477931-16.841821 32.278656 29.564685 64.874309 0.366996 0.255997-0.475995 1.221987-0.158998 0.91599l27.768704-28.623695a0.92899 0.92899 0 0 0-0.293996-1.489984z" fill="#8E5638"/><path d="M398.695826 131.677498c-2.554973-0.855991-15.449836-5.401942-22.586759-12.22187a0.280997 0.280997 0 0 0-0.499995 0.219998c0.230998 2.443974 2.137977 10.33989 16.522824 18.979798a0.329996 0.329996 0 0 0 0.390996 0l6.269933-6.439931a0.292997 0.292997 0 0 0-0.096999-0.537995z" fill="#77432C"/><path d="M715.304456 454.67806c-3.886959-24.883735 16.95182-48.752481 41.175562-51.441452 1.221987-0.146998 2.529973-0.183998 3.788959-0.219998q-0.696993-9.679897-2.334975-19.640791c-43.815534-139.892511-51.209455-229.723555-162.918266-310.889691L406.285745 93.410906c-77.206178 77.438176-86.776076 224.980605-89.22005 342.079358 2.895969 26.166721 8.786906 44.19453 18.649802 64.274316 18.980798-8.689908 45.783513-3.347964 57.076392 14.569845 4.815949 7.637919 10.633887 14.188849 15.888831 21.485771l1.160988 1.306987c0.781992 0.745992 1.539984 1.515984 2.346975 2.249976q4.67995 4.325954 9.703896 8.248912c1.221987 0.91699 8.787906 5.976936 8.225913 5.890937 2.78597 1.527984 5.62194 2.957969 8.554909 4.240955 1.343986 0.598994 7.002925 2.517973 7.601919 2.884969q4.203955 0.91599 8.45791 1.551984c19.554792 2.932969 33.292646 17.80681 37.5576 35.67562a406.415674 406.415674 0 0 0 64.214316 2.590972 364.616119 364.616119 0 0 0 72.280231-16.85382c-0.256997-0.293997-0.525994-0.574994-0.781992-0.879991-15.631834-19.212795-10.31589-51.099456 9.593898-65.192306 15.118839-10.717886 31.593664-19.187796 47.103499-29.332688 3.77696-2.443974 7.49192-5.009947 11.084882-7.735917 1.356986-1.038989 7.039925-6.306933 7.089924-6.025936 1.697982-1.954979 3.359964-3.946958 5.082946-5.939937 0.94199-1.367985 1.564983-2.247976 1.94398-2.749971a94.663992 94.663992 0 0 0 2.369974-4.887948 49.474473 49.474473 0 0 1 3.189966-5.695939 2.285976 2.285976 0 0 1-0.157998-0.488995z" fill="#29C8ED"/><path d="M620.902461 110.166727c-12.637865-8.273912-18.088807-11.647876-29.687684-18.418804 1.515984-2.639972 3.409964-9.911894 4.71795-15.03284a15.509835 15.509835 0 0 1-5.939937-7.332922c-4.789949-4.362954-6.953926-9.984894-4.448953-16.156828a17.428814 17.428814 0 0 1 0.403996-2.249976c-2.444974-3.176966-5.109946-6.354932-7.675918-9.715896-15.93683-21.009776-42.29955-33.133647-73.576217-31.385666-31.507665 1.490984-62.747332 19.102797-77.706173 41.30956a159.642301 159.642301 0 0 0-13.101861 22.085765c3.983958 5.65894 2.85997 7.882916-1.307986 12.319869a14.543845 14.543845 0 0 1-6.000936 7.46692c2.125977 7.931916 7.112924 20.496782 11.27988 26.607717 6.319933-5.927937 4.803949-5.255944 12.796864-11.537877 2.517973 22.708758 24.44374 45.697514 48.521483 55.964404s63.431325 5.68294 88.511058-0.427995c-2.517973-10.082893-2.737971-11.537877-5.64694-22.316763 25.40973-0.89299 44.341528-16.475825 58.861374-31.178668z" fill="#3BAFCD"/><path d="M506.944674 0.0229c-32.607653 0.414996-65.533302 18.539803-81.019138 41.554557-14.959841 22.194764-20.165785 48.179487-8.46991 72.781226 5.463942-6.109935 10.449889-8.383911 15.889831-16.609823 2.516973 22.709758 19.553792 48.631482 43.606536 58.898373s58.335379 10.583887 83.415112 4.484952c-2.382975-10.534888-3.73996-13.529856-6.110935-24.064744a79.503154 79.503154 0 0 0 57.161392-23.062755c-13.089861-7.332922-17.183817-11.26888-30.249678-16.169827 18.541803-22.304763 8.079914-50.464463-3.946958-66.230295-16.499824-21.718769-44.10953-34.025638-76.790183-31.190668" fill="#F7CC63"/><path d="M457.764197 24.46664s-37.142605 18.332805-29.784683 64.519313l8.016915-8.957905s8.970905 37.276603 24.260742 42.32355c0.012 0-38.731588-53.886426-2.492974-97.884958z m14.909842 109.89883s15.889831 24.811736 64.629312 20.875778l-10.766886-6.990926s-30.383677 4.448953-53.861426-13.883852z" fill="#FFFFFF"/><path d="M556.358148 40.35547s13.443857 45.501516-10.217891 72.451229l16.92782-12.001872s10.033893-33.561643-6.709929-60.449357z" fill="#E0AA48"/><path d="M318.116684 443.39718c-1.222987-23.379751 0.671993-56.611397 57.613387-72.573227 76.363187-21.400772 84.5391 21.167775 162.344272 12.698865 65.326305-7.100924 91.505026-59.655365 168.173209-42.104552 76.253188 17.452814 52.848437 104.826884 45.954511 121.778703s-40.246572 118.478739-180.945074 138.755523S322.576636 530.455254 318.116684 443.39718z" fill="#F7F8F9"/><path d="M532.378403 605.350456c-57.28339 0-111.573812-18.332805-153.14037-52.55444-37.215604-30.554675-59.704364-70.47125-61.708343-109.385836-0.92899-18.210806-2.871969-56.099403 58.029382-73.161221 41.32256-11.573877 62.992329-4.423953 85.945086 3.140966 20.019787 6.59993 40.735566 13.444857 76.484185 9.545899 26.399719-2.871969 46.516505-13.260859 65.999298-23.319752 29.12469-15.04484 56.635397-29.259689 102.40691-18.7848 21.938766 5.022947 37.5826 16.266827 46.516505 33.426644 16.609823 31.91166 5.511941 75.1652-0.158999 89.135051-0.304997 0.756992-0.659993 1.673982-1.074988 2.736971a209.337772 209.337772 0 0 1-43.009542 69.57926c-33.989638 36.128615-80.224146 58.592376-137.349538 66.854288a273.38009 273.38009 0 0 1-38.939586 2.78697zM415.24365 365.347011c-11.072882 0-23.819746 1.686982-39.366581 6.037936-60.021361 16.817821-58.103382 54.082424-57.186391 71.987234 1.979979 38.584589 24.309741 78.159168 61.280347 108.554844 41.34756 34.001638 95.404984 52.261444 152.408378 52.273444a271.791107 271.791107 0 0 0 38.779587-2.85997c61.183349-8.811906 141.969489-39.513579 179.406091-135.663556 0.414996-1.074989 0.781992-2.003979 1.086988-2.749971 5.62194-13.834853 16.621823-56.636397 0.207998-88.169061-8.774907-16.853821-24.162743-27.902703-45.746513-32.839651-45.355517-10.37689-72.684226 3.73996-101.612919 18.686802-19.555792 10.095893-39.758577 20.544781-66.377293 23.44175-36.005617 3.910958-56.832395-2.957969-76.99918-9.593898-14.11585-4.607951-27.767704-9.105903-45.879512-9.105903z" fill="#E5E5E5"/><path d="M508.644656 365.617008a78.220167 78.220167 0 0 0 53.592429-5.951936c7.063925-3.470963 0.867991-14.005851-6.110935-10.547888a64.86131 64.86131 0 0 1-44.206529 4.71795c-7.639919-1.86998-10.901884 9.923894-3.250965 11.781874z" fill="#2AB4D3"/><path d="M317.798687 440.196214c-1.221987-23.381751 0.671993-56.612397 57.614387-72.574227 76.362187-21.400772 84.5391 21.167775 162.343272 12.697865 65.326305-7.099924 91.506026-59.654365 168.17421-42.104552 76.252188 17.452814 52.847437 104.827884 45.954511 121.778704s-40.296571 118.492739-180.995074 138.768522-248.667353-71.510239-253.091306-158.567312z" fill="#FFFFFF"/><path d="M408.998717 441.369202c-9.777896-7.199923-27.26771-12.564866-34.79563 0.817991a15.435836 15.435836 0 0 0 0 14.886842c3.127967 5.68294 9.336901 8.701907 15.496835 9.776896 5.768939 1.026989 8.249912-7.809917 2.444974-8.835906-3.886959-0.696993-7.859916-2.150977-9.777896-5.169945a5.939937 5.939937 0 0 1 0-6.440932 6.660929 6.660929 0 0 1 2.553973-2.382974 8.970905 8.970905 0 0 1 4.240955-1.050989c5.65994-0.122999 10.829885 3.066967 15.229838 6.293933 4.765949 3.494963 9.336901-4.460953 4.63095-7.919916z m277.07105-23.356752c4.142956-4.71795 14.396847-14.176849 20.776779-7.42992 5.181945 5.437942-2.064978 11.30488-7.222923 13.442856-2.297976 0.97799-2.749971 4.314954-1.649982 6.269934 1.356986 2.370975 4.008957 2.603972 6.269933 1.649982 10.632887-4.496952 18.539803-17.379815 9.471899-27.462708-10.31489-11.463878-26.191721-2.089978-34.221636 7.003926-3.873959 4.411953 2.579973 10.925884 6.477931 6.476931z" fill="#566468"/><path d="M406.729741 319.115503a37.5456 37.5456 0 1 0 74.635205-8.265912 37.5456 37.5456 0 1 0-74.635205 8.265912z" fill="#3A4244"/><path d="M393.695879 291.173801l84.992096-9.4239c5.792938-0.646993 5.866938-9.776896 0-9.165903l-84.991096 9.4229c-5.792938 0.647993-5.866938 9.777896 0 9.166903zM574.307957 291.984792a37.5456 37.5456 0 1 0 74.635205-8.265912 37.5456 37.5456 0 1 0-74.635205 8.265912z" fill="#3A4244"/><path d="M571.598986 262.892102l79.85815-8.848906c5.792938-0.647993 5.865938-9.777896 0-9.165903l-79.797151 8.847906c-5.792938 0.647993-5.865938 9.777896 0 9.166903z" fill="#3A4244"/><path d="M411.367691 312.423574a19.298795 19.298795 0 1 0 38.361592-4.247954 19.298795 19.298795 0 1 0-38.361592 4.247954zM579.769899 285.276863a19.298795 19.298795 0 1 0 38.361591-4.248954 19.298795 19.298795 0 1 0-38.362591 4.248954z" fill="#EFF8F9"/><path d="M539.418328 555.166991c19.347794-15.459835 41.835555-18.332805 65.8273-16.352826 7.834917 0.647993 7.797917-11.573877 0-12.22187-12.746864-1.062989-25.592728-1.124988-38.144594 1.686982-13.553856 3.029968-25.531728 9.629897-36.323614 18.246805-6.109935 4.888948 2.554973 13.504856 8.640908 8.640909z" fill="#C95E6C"/><path d="M414.045663 512.121449a1.563983 1.563983 0 0 0-1.331986-0.305997l-50.011468 12.344869a1.490984 1.490984 0 0 0-1.039989 0.964989 1.686982 1.686982 0 0 0 0.195998 1.479985l17.477814 26.422718a1.600983 1.600983 0 0 0 1.722982 0.696993l34.307635-8.921905a1.429985 1.429985 0 0 0 0.304996-0.121999 1.539984 1.539984 0 0 0 0.793992-1.466984l-1.759981-29.869682a1.735982 1.735982 0 0 0-0.659993-1.222987z" fill="#D1D3D4"/><path d="M442.168363 625.516242l1.869981-2.749971 3.972957-1.307986c19.786789 33.80664-0.342996 64.899309-23.075754 71.42524-20.776779 5.939937-42.898543-12.038872-45.14752-25.971724" fill="#D8BC93"/><path d="M1092.668439 405.582583a261.696214 261.696214 0 0 1-27.413708 90.381038c-1.539984 2.969968-3.213966 6.025936-5.047946 9.007904-2.663972-14.849842-13.981851-25.849725-29.307688-26.704716-13.957851-0.794992-27.768704 7.748918-31.275667 21.64477-3.287965 13.016861 2.149977 28.281699 13.981851 35.125626 9.519899 5.511941 20.556781 4.961947 30.346677 0.95399-7.50392 17.684812-22.793757 32.790651-38.059595 42.825544-29.13669 19.102797-64.507313 24.859735-98.568951 27.902703-7.773917 0.695993-7.846916 12.917862 0 12.22187 37.374602-3.336964 76.349187-9.777896 107.808853-31.642664 20.092786-13.981851 40.42957-36.849608 45.04952-62.197337 14.165849-14.226849 22.403762-35.174626 29.333688-53.61743a278.880031 278.880031 0 0 0 15.374836-65.901298c0.95299-7.796917-11.27988-7.735918-12.22187 0z m-57.797385 120.606716c-12.22187 2.749971-23.319752-4.534952-24.015744-17.343815-0.623993-11.426878 8.933905-19.199796 19.994787-18.332805 13.565856 1.050989 18.662801 13.957851 17.86881 26.045722 0 0.90399-0.146998 1.795981-0.244997 2.699972a31.679663 31.679663 0 0 1-13.553856 6.929926z" fill="#8E8C8B"/><path d="M136.742615 850.791844c-7.466921 29.038691-20.226785 71.779236-55.218413 73.330219a43.999532 43.999532 0 0 0-0.537994-20.776779c-3.139967-10.999883-11.915873-21.009776-24.089744-21.107775-11.915873-0.096999-21.130775 8.934905-20.397782 20.960777 0.610993 10.046893 6.477931 19.078797 14.507845 24.847735a43.693535 43.693535 0 0 0 13.724854 6.476931l-0.170998 0.305997c-12.392868 21.681769-37.423602 29.919682-60.205359 35.74962-7.613919 1.942979-4.387953 13.736854 3.250965 11.780874 26.203721-6.709929 54.192423-17.109818 67.979277-42.189551a51.169455 51.169455 0 0 0 1.88098-3.75196 54.595419 54.595419 0 0 0 30.493675-8.139913c24.896735-15.94983 33.635642-47.274497 40.552568-74.175211 1.967979-7.686918-9.813896-10.937884-11.769874-3.311964z m-81.312135 65.105307c-4.374953-4.093956-10.424889-14.568845-4.558951-19.628791 7.772917-6.709929 16.328826 3.275965 18.332804 10.26689a32.363656 32.363656 0 0 1 0.109999 16.425826 30.554675 30.554675 0 0 1-13.883852-7.063925z" fill="#C4C4C4"/><path d="M542.682294 726.763164a6.269933 6.269933 0 0 0 8.639908 0c2.199977-2.199977 2.505973-6.477931 0-8.640908l-15.887831-13.676854a6.269933 6.269933 0 0 0-8.640908 0c-2.199977 2.199977-2.517973 6.477931 0 8.640908z m88.25406 13.357858c-47.665493 1.699982-95.330985 3.349964-142.996478 4.64495-10.913884 0.292997-21.852767 0.647993-32.766651 0.659993a5.707939 5.707939 0 0 0-5.866938 5.462942 5.792938 5.792938 0 0 0-0.243997 2.566973l5.108946 45.489516c0.866991 7.723918 13.101861 7.821917 12.22187 0l-4.644951-41.34656c50.109467-0.268997 100.219933-2.85997 150.183401-4.595951l11.561877-0.402996c-2.444974 11.634876-5.915937 23.221753-8.897905 34.599632-1.991979 7.614919 9.777896 10.865884 11.781875 3.251965 3.666961-14.018851 8.115914-28.257699 10.400889-42.605546 0.635993-3.71596-1.502984-7.883916-5.841938-7.724918z" fill="#E8C682"/><path d="M513.960599 796.892417c4.484952-6.489931-6.110935-12.600866-10.547887-6.110934-13.223859 19.126796-31.91166 30.921671-51.270455 43.009542-6.660929 4.154956-0.525994 14.726843 6.109935 10.546887 21.327773-13.346858 41.212561-26.509718 55.708407-47.445495z m116.230763 41.676557c-21.816768-12.918862-43.510537-25.788725-53.59343-50.305465-2.957969-7.173924-14.776843-4.032957-11.781874 3.250966a88.181061 88.181061 0 0 0 23.221753 33.341645c10.901884 9.593898 23.575749 16.91482 36.017616 24.272741 6.758928 3.983958 12.906863-6.55093 6.135935-10.559887z m-36.837608 72.781225q-24.773736 0.525994-49.559472 0.92999V852.391827c10.595887-0.072999 21.179775-0.133999 31.776661-0.146999 7.858916 0 7.882916-12.22187 0-12.22187-25.665727 0-51.331454 0.379996-76.99818 0.329997-7.858916 0-7.869916 12.22187 0 12.22187 10.999883 0 21.999766 0 32.999649-0.109999v60.059361q-22.708758 0.402996-45.429517 0.854991c-7.857916 0.170998-7.882916 12.392868 0 12.221869 35.73762-0.757992 71.474239-1.221987 107.210859-2.015978 7.858916-0.183998 7.882916-12.405868 0-12.23487z" fill="#E8C682"/><path d="M417.223629 542.138129c11.146881 37.509601 41.30956 79.089158 31.068669 116.206763-2.700971 9.776896-17.110818 34.685631-41.554557 31.299667-26.154722-3.665961-38.144594-31.849661-41.554558-56.966394-3.78996-28.012702 9.226902-69.102264 20.776779-89.329049" fill="#8E714F"/><path d="M417.065631 514.455424a1.539984 1.539984 0 0 0-1.295987-0.304997l-49.975468 10.999883a1.539984 1.539984 0 0 0-0.977989 2.309975l15.582834 25.323731a1.527984 1.527984 0 0 0 1.649982 0.683993l34.306635-7.979915a1.502984 1.502984 0 0 0 0.317997-0.109999 1.539984 1.539984 0 0 0 0.87999-1.381986l0.086-28.354698a1.539984 1.539984 0 0 0-0.574994-1.185987z" fill="#3A4244"/></svg>