<?xml version="1.0" standalone="no"?><!DOCTYPE svg PUBLIC "-//W3C//DTD SVG 1.1//EN" "http://www.w3.org/Graphics/SVG/1.1/DTD/svg11.dtd"><svg t="1700298386426" class="icon" viewBox="0 0 1024 1024" version="1.1" xmlns="http://www.w3.org/2000/svg" p-id="1770" xmlns:xlink="http://www.w3.org/1999/xlink" width="200" height="200"><path d="M324.6592 352.13312c7.1168 0 13.34272-2.66752 18.688-8.00768l141.50656-141.51168v443.2128c0 15.12448 11.5712 26.70592 26.7008 26.70592s26.7008-11.58144 26.7008-26.70592V202.61376l141.50656 141.51168c5.34528 5.34016 12.4672 8.00768 18.688 8.00768 6.23616 0 13.35296-2.66752 18.69312-8.00768 10.68032-10.68032 10.68032-27.59168 0-37.38112l-186.9056-186.89536c-0.88576-0.89088-2.66752-2.66752-4.44416-3.5584-0.88576 0-1.77664-0.89088-1.77664-0.89088-0.896-0.88576-1.78688-0.88576-2.67776-1.77664-0.89088 0-1.77664-0.89088-2.66752-0.89088-0.896 0-1.77664-0.89088-2.66752-0.89088a21.67296 21.67296 0 0 0-10.68032 0c-0.89088 0-1.77664 0.89088-2.66752 0.89088-0.89088 0-1.78176 0.89088-2.67264 0.89088-0.89088 0-1.77664 0.89088-2.66752 1.77664-0.89088 0-1.77664 0.89088-1.77664 0.89088-1.78176 0.89088-2.66752 1.78176-4.4544 3.5584L304.18944 306.74432c-10.68032 10.68032-10.68032 27.59168 0 37.38112 7.1168 5.34016 13.34784 8.00768 20.46976 8.00768z" fill="#333333" p-id="1771"></path><path d="M929.84832 556.83072c-15.1296 0-26.7008 11.5712-26.7008 26.7008v206.47936c0 38.272-31.15008 69.42208-69.41696 69.42208H189.37856c-38.26688 0-69.41696-31.15008-69.41696-69.42208v-206.47936c0-15.1296-11.5712-26.7008-26.7008-26.7008s-26.69568 11.5712-26.69568 26.7008v206.47936c0 67.6352 55.17824 122.81856 122.81856 122.81856h645.23776c67.64544 0 122.82368-55.18336 122.82368-122.81856v-206.47936c-0.896-15.1296-12.4672-26.7008-27.5968-26.7008z" fill="#333333" p-id="1772"></path></svg>